<?xml version="1.0" encoding="utf-8"?>
<!-- Generator: Adobe Illustrator 25.2.3, SVG Export Plug-In . SVG Version: 6.00 Build 0)  -->
<svg version="1.1" id="Шар_1" xmlns="http://www.w3.org/2000/svg" xmlns:xlink="http://www.w3.org/1999/xlink" x="0px" y="0px"
	 viewBox="0 0 871.5 184.1" style="enable-background:new 0 0 871.5 184.1;" xml:space="preserve">
<style type="text/css">
	.st0{fill:#0077D4;}
</style>
<path id="rect65" class="st0" d="M0,0h88.9v88.9H0V0z"/>
<path id="rect165" class="st0" d="M95.2,88.9V0h88.9v88.9H95.2z"/>
<path id="rect413" class="st0" d="M0,95.2h88.9v88.9H0V95.2z"/>
<path id="rect415" class="st0" d="M95.2,184.1V95.2h88.9v88.9H95.2z"/>
<path id="path19153" class="st0" d="M391.1,36.9l-30.6,110.5h-20.9l-21.3-77.3c-0.9-3.3-1.4-6.9-1.6-10.8h-0.3
	c-0.3,3.6-0.9,7.2-1.9,10.6l-21.3,77.4h-21.4L240.5,36.9h20.3l20.2,80.9c0.8,3.4,1.3,6.9,1.6,10.6h0.4c0.2-2.6,0.9-6.2,2.2-10.6
	l22.9-80.9h19.1l21.2,81.5c0.7,2.8,1.3,6.1,1.6,9.9h0.3c0.2-2.6,0.8-6,1.8-10.2l19.9-81.2L391.1,36.9z"/>
<path id="path19201" class="st0" d="M418,147.3h-18.1V68.4H418V147.3z"/>
<path id="path19155" class="st0" d="M409.1,55.3c-3,0-5.6-1-7.8-2.9c-2.1-1.9-3.2-4.4-3.2-7.4c0-3,1.1-5.5,3.2-7.5
	c2.2-2,4.8-3,7.8-3c3.1,0,5.8,1,7.9,3c2.2,2,3.3,4.5,3.3,7.5c0,2.8-1.1,5.3-3.3,7.3C414.9,54.3,412.2,55.3,409.1,55.3z"/>
<path id="path19157" class="st0" d="M507.3,147.3h-17.9v-44.4c0-13.2-5.2-21.8-15.6-21.8c-5.4,0-9.9,1.8-13.5,5.9
	c-3.5,4.1-5.3,9.5-5.3,15.3v45h-18V68.4h18v10.8c3.3-5.8,13.2-12.6,24.9-12.6c11.5,0,17.3,3.7,21.3,8.7c4.5,5.5,6.1,12.9,6.1,23.8
	L507.3,147.3z"/>
<path id="path20723" class="st0" d="M580,30.6v45.2h-1.4c-2.7-4.8-10.8-9.2-22.1-9.2c-10.7,0-19.3,3.9-25.7,11.8
	c-6.4,7.9-9.6,18.3-9.6,31.3c0,12.2,3,21.6,8.8,28.6c6.1,7.4,15,9.9,23.2,9.9c14.2,0,22.1-6.4,26.3-11.4h0.5v10.4h17.8V30.6H580z
	 M561,81.2c11.1-0.6,20.2,10.2,19.3,20.9c-0.1,7.9,0.9,16.5-4,23.4c-3.9,7-12.3,10-20,8.8c-9.7-1-15.6-10.6-16.5-19.5
	c-1-9.6-0.2-20.7,6.8-28.1C550.3,82.7,555.8,81.1,561,81.2L561,81.2z"/>
<path id="path22175" class="st0" d="M653.5,66.2c-12.7,0-22.9,3.7-30.4,11.2c-7.5,7.5-11.2,17.9-11.2,31.2
	c0,12.2,3.6,22.1,10.8,29.5c7.2,7.4,16.9,11.1,29,11.1c12.4,0,22.3-3.8,29.7-11.4c7.4-7.6,11.1-17.8,11.1-30.5
	c0-12.9-3.4-23-10.2-30.3C675.3,69.8,665.8,66.2,653.5,66.2L653.5,66.2z M652.5,81.3c7.1-0.3,14.4,3.3,17.7,9.7
	c4.3,8.1,4.4,17.9,2.6,26.8c-1.5,7.5-7.1,14.5-14.9,15.8c-8.2,1.8-17.7-0.6-22.6-7.7c-5.6-7.9-5.8-18.5-3.8-27.7
	c1.8-8.3,8.6-15.7,17.3-16.6C650.1,81.4,651.3,81.3,652.5,81.3z"/>
<path id="path19163" class="st0" d="M814.2,68.3l-23.5,79h-18.9l-15-53.5c-0.6-2.1-0.6-2-1.1-4.8h-0.3c-0.6,1.9-0.6,1.8-1.4,4.6
	l-15.2,53.7h-18.5l-23.4-79h18.7l13.9,56.9c0.5,1.7,0.4,1.7,0.9,4.6h0.5c0.6-2.3,0.6-2.3,1.2-4.8l16.7-56.8h17l14.9,57.1
	c0.5,1.8,0.5,1.8,1,4.6h0.5c0.5-2,0.5-2,1.2-4.6L797,68.3L814.2,68.3z"/>
<path id="path19165" class="st0" d="M819.4,144.9v-17.6c6.2,4.3,13.1,7.2,20.6,7.2c9.4,0,13.5-2.8,13.5-8.1c0-1.8,0.1-1.9-0.6-3.5
	c-0.8-1.3-1.2-2.2-2.7-3.4c-1.4-1-3.2-2-5.2-2.9c-2-0.8-4.2-1.9-6.6-2.9c-3-1.3-5.7-2.6-8.2-4.1c-2.4-1.4-4.4-3.6-6-5.4
	c-1.6-1.8-2.8-3.9-3.6-6.2c-0.8-2.3-1.2-5-1.2-8.1c0-3.8,0.8-7.1,2.5-10c1.7-2.9,3.9-5.4,6.7-7.3c2.8-2,5.9-3.8,9.5-4.8
	c3.6-1,7.4-1.6,11.2-1.6c6.8,0,12.9,1.5,18.2,3.8l0,16.7c-4.1-3.8-13.9-6.2-17.6-6.2c-1.8,0-2.2-0.1-3.9,0.1
	c-1.7,0.5-3.2,0.8-4.4,1.7s-2.1,1.8-2.8,3c-0.7,1.1-1,2.4-1,3.8c0,1.7,0.3,3.1,1,4.3s1.6,2.2,2.9,3.2c1.3,0.9,2.9,1.7,4.7,2.5
	c1.9,0.7,2.1,1.1,4.5,1.9c3.2,1.4,6,2.8,8.5,4.2c2.5,1.4,4.7,3.1,6.4,4.9c1.8,1.8,3.4,4.3,4.3,6.7c1,2.4,1.2,5.5,1.2,8.8
	c0,4-0.9,7.5-2.6,10.5c-1.7,3-4,5.4-6.9,7.4c-2.9,2-6.2,3.4-10,4.3c-3.7,1-7.7,1.5-11.8,1.5C832.2,149.2,825.3,147.7,819.4,144.9
	L819.4,144.9z"/>
</svg>
